<svg xmlns="http://www.w3.org/2000/svg" viewBox="0 0 300 122"><title>logo</title><path d="M37,49c-8.57-2.92-17.22-6.65-17.13-15.13,0-7.74,7.38-12.39,16.13-12.48a31.8,31.8,0,0,1,15.85,4.19c1.37,0.82,2.64,1.55,3.92-.09s0-2.64-1-3.28a35.72,35.72,0,0,0-18.68-5c-10.84.18-20.77,5.56-20.77,16.67,0,11.66,10.48,16,21.69,19.86,9.66,3.28,18.41,6.47,18,15.76-0.27,7.84-7.65,11.39-17.31,11.66-8.11.18-12.39-1.46-19.13-4.74-1.09-.55-2.19-0.82-3.28.91s-0.36,2.19.91,3c4.92,3.19,12.57,5.47,21.14,5.28,12.12-.18,22.05-5,22.41-16.31C59.81,56.27,48.33,52.81,37,49Z" style="fill:#e6473a"/><path d="M104.54,45.52C98.17,42,92.79,40.33,86.41,40.33c-11.75,0-21.69,9.2-21.69,22.6,0,14.58,9.39,22.69,20,22.69,5.83,0,12.12-2.55,17.31-7.75v4c0,1.46.36,2.28,2.19,2.28s2.19-.82,2.19-2.28V48.8A3.32,3.32,0,0,0,104.54,45.52Zm-2.46,27.24c-4.83,6.2-11.3,9-17.22,8.84C76.57,81.33,69.28,74.86,69.28,63c0-11.48,7.93-18.68,17.13-18.68a34.87,34.87,0,0,1,15.67,4V72.77Z" style="fill:#e6473a"/><path d="M153.56,45.52c-6.38-3.55-11.75-5.19-18.13-5.19-11.75,0-21.69,9.2-21.69,22.6,0,14.58,9.39,22.69,20,22.69,5.83,0,12.12-2.55,17.31-7.75v4c0,1.46.36,2.28,2.19,2.28s2.19-.82,2.19-2.28V48.8A3.32,3.32,0,0,0,153.56,45.52ZM151.1,72.77c-4.83,6.2-11.3,9-17.22,8.84-8.29-.27-15.58-6.74-15.58-18.59,0-11.48,7.93-18.68,17.13-18.68a34.87,34.87,0,0,1,15.67,4V72.77Z" style="fill:#e6473a"/><path d="M206.87,62.2a22.49,22.49,0,0,0-5-14.12l3.83-3.1c1.28-1,1.37-1.64.36-2.82s-1.82-1.18-2.92-.27l-4,3.37c-4.19-3.64-9.2-4.92-14.31-4.92a21.91,21.91,0,1,0,11.66,40.46,12.21,12.21,0,0,1,5,10.3c-0.27,6.2-5.56,12.21-15.76,12.21-8.11,0-13.49-3.74-17.22-9.11-0.91-1.37-1.46-1.82-3-1.09-1.28.64-1.73,1.18-.82,2.82,3.83,6.92,11.75,11.57,21.78,11.57,12.39,0,18.77-8.11,19.23-16.22a13.87,13.87,0,0,0-6.38-12.57A21.81,21.81,0,0,0,206.87,62.2Zm-22.05,18a17.91,17.91,0,1,1,17.49-18A17.84,17.84,0,0,1,184.82,80.15Z" style="fill:#e6473a"/><circle cx="218.53" cy="20.56" r="3.46" style="fill:#e6473a"/><path d="M218.62,41.79c-1.91,0-2.19.82-2.19,2.28V81.88c0,1.46.27,2.28,2.19,2.28s2.19-.82,2.19-2.28V44.06C220.81,42.61,220.53,41.79,218.62,41.79Z" style="fill:#e6473a"/><path d="M251.6,40.33c-12.94,0-21.41,10.11-21.41,23.05,0.09,22.32,22.69,26.42,36.17,18.5,1.55-.91,2.19-1.55,1.09-3.1-1-1.37-2.1-.91-3.74-0.09a24.72,24.72,0,0,1-10.93,2.55c-9.29,0-18-5.19-18-17.86h26.61C276.48,63.38,271.47,40.05,251.6,40.33ZM235,59.55c1.28-8.84,7.38-15.13,16.58-15.22,14-.18,18.13,15.22,9.66,15.22H235Z" style="fill:#e6473a"/><path d="M281,44.45a4.71,4.71,0,1,0,4.64,4.7A4.67,4.67,0,0,0,281,44.45Zm0,8.85a4.14,4.14,0,1,1,4-4.15A4.06,4.06,0,0,1,281,53.3Z" style="fill:#e6473a"/><path d="M282.47,50.64c-1.3.95-3.2,0.47-3.2-1.51s1.7-2.43,3.07-1.51a0.19,0.19,0,0,0,.29,0,0.2,0.2,0,0,0,0-.34,2.36,2.36,0,0,0-3.93,1.88A2.45,2.45,0,0,0,282.75,51a0.18,0.18,0,0,0,0-.31A0.2,0.2,0,0,0,282.47,50.64Z" style="fill:#e6473a"/></svg>